<svg width="28" height="28" viewBox="0 0 28 28" fill="none" xmlns="http://www.w3.org/2000/svg">
<path d="M14 1C11.4288 1 8.91543 1.76244 6.77759 3.1909C4.63975 4.61935 2.97351 6.64968 1.98957 9.02512C1.00563 11.4006 0.748189 14.0144 1.2498 16.5362C1.75141 19.0579 2.98953 21.3743 4.80762 23.1924C6.6257 25.0105 8.94208 26.2486 11.4638 26.7502C13.9856 27.2518 16.5995 26.9944 18.9749 26.0104C21.3503 25.0265 23.3807 23.3603 24.8091 21.2224C26.2376 19.0846 27 16.5712 27 14C26.996 10.5534 25.6251 7.24911 23.188 4.812C20.7509 2.37488 17.4466 1.00397 14 1ZM24.949 13H15V3.051C17.5587 3.2877 19.9541 4.41193 21.7711 6.22894C23.5881 8.04595 24.7123 10.4413 24.949 13ZM14 25C11.1791 24.9855 8.47158 23.8878 6.437 21.9338C4.40242 19.9798 3.19631 17.3188 3.06792 14.5008C2.93953 11.6828 3.89868 8.92313 5.74715 6.79221C7.59562 4.66128 10.1921 3.32194 13 3.051V15H24.949C24.6974 17.7311 23.4355 20.27 21.4104 22.1196C19.3852 23.9692 16.7427 24.9964 14 25Z" fill="white" stroke="white" stroke-width="0.2"/>
</svg>
