<svg width="28" height="24" viewBox="0 0 28 24" fill="none" xmlns="http://www.w3.org/2000/svg">
<path d="M24.214 6.571H21.428V3.785C21.4269 3.0467 21.1332 2.33894 20.6111 1.81688C20.0891 1.29482 19.3813 1.00106 18.643 1H3.786C3.04735 1.00079 2.33918 1.29457 1.81688 1.81688C1.29457 2.33918 1.00079 3.04735 1 3.786V20.5C1.00079 21.2386 1.29457 21.9468 1.81688 22.4691C2.33918 22.9914 3.04735 23.2852 3.786 23.286H24.215C24.9535 23.2849 25.6614 22.991 26.1835 22.4688C26.7056 21.9465 26.9992 21.2385 27 20.5V9.357C26.9992 8.61835 26.7054 7.91018 26.1831 7.38788C25.6608 6.86557 24.9527 6.57179 24.214 6.571ZM3.785 2.857H18.642C18.8883 2.85726 19.1245 2.95523 19.2986 3.12939C19.4728 3.30355 19.5707 3.53969 19.571 3.786V6.572H3.786C3.46879 6.57507 3.15451 6.63292 2.857 6.743V3.786C2.857 3.53961 2.95488 3.30332 3.1291 3.1291C3.30333 2.95488 3.53961 2.857 3.786 2.857H3.785ZM25.143 14H20.964C20.8409 14 20.7229 14.0489 20.6359 14.1359C20.5489 14.2229 20.5 14.3409 20.5 14.464V15.393C20.5 15.5161 20.5489 15.6341 20.6359 15.7211C20.7229 15.8081 20.8409 15.857 20.964 15.857H25.143V20.5C25.143 20.7464 25.0451 20.9827 24.8709 21.1569C24.6967 21.3311 24.4604 21.429 24.214 21.429H3.786C3.53961 21.429 3.30333 21.3311 3.1291 21.1569C2.95488 20.9827 2.857 20.7464 2.857 20.5V9.357C2.857 9.11061 2.95488 8.87432 3.1291 8.7001C3.30333 8.52587 3.53961 8.428 3.786 8.428H24.215C24.337 8.428 24.4578 8.45203 24.5705 8.49871C24.6832 8.5454 24.7856 8.61383 24.8719 8.7001C24.9582 8.78636 25.0266 8.88878 25.0733 9.00149C25.12 9.1142 25.144 9.235 25.144 9.357L25.143 14Z" fill="#435179" stroke="#435179" stroke-width="0.2"/>
</svg>
