<svg width="28" height="28" viewBox="0 0 28 28" fill="none" xmlns="http://www.w3.org/2000/svg">
<path d="M24.214 1H11.214C10.4751 1 9.76648 1.29352 9.244 1.81599C8.72152 2.33847 8.428 3.0471 8.428 3.786V11.215H3.786C3.04728 11.215 2.3388 11.5084 1.81635 12.0306C1.29391 12.5529 1.00027 13.2613 1 14V22.357C1 23.5884 1.48917 24.7694 2.3599 25.6401C3.23063 26.5108 4.4116 27 5.643 27H9.822C9.94506 27 10.0631 26.9511 10.1501 26.8641C10.2371 26.7771 10.286 26.6591 10.286 26.536V25.607C10.286 25.4839 10.2371 25.3659 10.1501 25.2789C10.0631 25.1919 9.94506 25.143 9.822 25.143H5.643C4.90411 25.143 4.19548 24.8495 3.673 24.327C3.15052 23.8045 2.857 23.0959 2.857 22.357V14C2.857 13.7536 2.95488 13.5173 3.1291 13.3431C3.30332 13.1689 3.53961 13.071 3.786 13.071H8.429V20.964C8.429 21.0871 8.47789 21.2051 8.5649 21.2921C8.65192 21.3791 8.76994 21.428 8.893 21.428H9.822C9.94506 21.428 10.0631 21.3791 10.1501 21.2921C10.2371 21.2051 10.286 21.0871 10.286 20.964V3.786C10.286 3.53961 10.3839 3.30333 10.5581 3.1291C10.7323 2.95488 10.9686 2.85699 11.215 2.85699H24.215C24.4614 2.85699 24.6977 2.95488 24.8719 3.1291C25.0461 3.30333 25.144 3.53961 25.144 3.786V13.536C25.144 13.6591 25.1929 13.7771 25.2799 13.8641C25.3669 13.9511 25.4849 14 25.608 14H26.537C26.6601 14 26.7781 13.9511 26.8651 13.8641C26.9521 13.7771 27.001 13.6591 27.001 13.536V3.786C27.001 3.42005 26.9289 3.0577 26.7888 2.71962C26.6488 2.38154 26.4435 2.07436 26.1846 1.81564C25.9258 1.55693 25.6186 1.35174 25.2805 1.21179C24.9423 1.07184 24.5799 0.999869 24.214 1Z" fill="#435179" stroke="#435179" stroke-width="0.2"/>
<path d="M17.214 5.64301H14.5C14.2239 5.64301 14 5.86686 14 6.14301V7.00001C14 7.27615 14.2239 7.50001 14.5 7.50001H17.214C17.4901 7.50001 17.714 7.27615 17.714 7.00001V6.14301C17.714 5.86686 17.4901 5.64301 17.214 5.64301Z" fill="#435179" stroke="#435179" stroke-width="0.2"/>
<path d="M20.929 9.35699H14.5C14.2239 9.35699 14 9.58085 14 9.85699V10.714C14 10.9901 14.2239 11.214 14.5 11.214H20.929C21.2051 11.214 21.429 10.9901 21.429 10.714V9.85699C21.429 9.58085 21.2051 9.35699 20.929 9.35699Z" fill="#435179" stroke="#435179" stroke-width="0.2"/>
<path d="M24.883 16.786H15.183C14.6226 16.7876 14.0858 17.0112 13.6899 17.4078C13.2941 17.8044 13.0715 18.3417 13.071 18.902V24.886C13.0715 25.4471 13.2946 25.985 13.6913 26.3817C14.088 26.7784 14.6259 27.0015 15.187 27.002H24.887C25.448 27.0015 25.9859 26.7784 26.3826 26.3817C26.7793 25.985 27.0025 25.4471 27.003 24.886V18.904C27.003 18.6257 26.9481 18.3501 26.8416 18.093C26.735 17.8359 26.5788 17.6024 26.3819 17.4057C26.185 17.209 25.9513 17.053 25.6941 16.9467C25.4369 16.8403 25.1613 16.7857 24.883 16.786ZM25.142 24.886C25.142 24.9547 25.1147 25.0206 25.0661 25.0692C25.0176 25.1177 24.9517 25.145 24.883 25.145H15.183C15.1143 25.145 15.0484 25.1177 14.9998 25.0692C14.9513 25.0206 14.924 24.9547 14.924 24.886V18.904C14.924 18.8353 14.9513 18.7694 14.9998 18.7209C15.0484 18.6723 15.1143 18.645 15.183 18.645H24.883C24.9517 18.645 25.0176 18.6723 25.0661 18.7209C25.1147 18.7694 25.142 18.8353 25.142 18.904V24.886Z" fill="#435179" stroke="#435179" stroke-width="0.2"/>
<path d="M22.785 21.429H20.071C19.7948 21.429 19.571 21.6529 19.571 21.929V22.786C19.571 23.0622 19.7948 23.286 20.071 23.286H22.785C23.0611 23.286 23.285 23.0622 23.285 22.786V21.929C23.285 21.6529 23.0611 21.429 22.785 21.429Z" fill="#435179" stroke="#435179" stroke-width="0.2"/>
</svg>
