<svg width="164" height="59" viewBox="0 0 164 59" fill="none" xmlns="http://www.w3.org/2000/svg">
<path d="M65.0893 18.3945H69.3276V38H65.0893V29.8926H57.7065V38H53.4682V18.3945H57.7065V25.9551H65.0893V18.3945ZM73.4018 20.8691V17.0684H77.476V20.8691H73.4018ZM73.4018 38V22.8789H77.4897V38H73.4018ZM93.6088 22.8789H96.2612V36.25C96.2612 38.6107 95.573 40.4701 94.1967 41.8281C92.8204 43.1953 90.9337 43.8789 88.5366 43.8789C86.4858 43.8789 84.7768 43.3867 83.4096 42.4023C82.0424 41.418 81.1856 40.0599 80.8393 38.3281H84.8998C85.1186 38.9753 85.5652 39.4766 86.2397 39.832C86.9233 40.1966 87.6661 40.3789 88.4682 40.3789C89.5346 40.3789 90.4324 40.0553 91.1616 39.4082C91.8907 38.7702 92.2553 37.9134 92.2553 36.8379V36.2637C90.9702 37.166 89.53 37.6172 87.935 37.6172C86.5496 37.6172 85.2781 37.2845 84.1205 36.6191C82.9721 35.9538 82.0652 35.0423 81.3998 33.8848C80.7436 32.7181 80.4155 31.4375 80.4155 30.043C80.4155 28.6576 80.7436 27.3861 81.3998 26.2285C82.0652 25.0618 82.9721 24.1413 84.1205 23.4668C85.2781 22.7923 86.5496 22.4551 87.935 22.4551C89.8946 22.4551 91.5672 23.0977 92.9526 24.3828L93.6088 22.8789ZM88.4135 33.9668C89.5255 33.9668 90.4461 33.5977 91.1752 32.8594C91.9044 32.112 92.269 31.1732 92.269 30.043C92.269 28.9219 91.9044 27.9967 91.1752 27.2676C90.4552 26.5293 89.5346 26.1602 88.4135 26.1602C87.3015 26.1602 86.381 26.5293 85.6518 27.2676C84.9226 27.9967 84.558 28.9219 84.558 30.043C84.558 31.1732 84.9181 32.112 85.6381 32.8594C86.3673 33.5977 87.2924 33.9668 88.4135 33.9668ZM108.853 22.5234C110.557 22.5234 111.906 23.0885 112.9 24.2188C113.902 25.349 114.404 26.8802 114.404 28.8125V38H110.316V29.4961C110.316 28.3477 110.102 27.4954 109.673 26.9395C109.254 26.3835 108.589 26.1055 107.677 26.1055C106.647 26.1055 105.822 26.4609 105.203 27.1719C104.592 27.8737 104.287 28.8353 104.287 30.0566V38H100.199V17.4238H104.287V24.2871C105.517 23.1113 107.039 22.5234 108.853 22.5234ZM125.71 18.3945C127.005 18.3945 128.176 18.6862 129.224 19.2695C130.281 19.8438 131.111 20.6504 131.712 21.6895C132.323 22.7194 132.628 23.8678 132.628 25.1348C132.628 27.0671 131.968 28.6758 130.646 29.9609C129.324 31.237 127.679 31.875 125.71 31.875H122.402V38H118.164V18.3945H125.71ZM125.519 27.9512C126.348 27.9512 127.023 27.6868 127.542 27.1582C128.062 26.6296 128.322 25.9551 128.322 25.1348C128.322 24.3145 128.062 23.6445 127.542 23.125C127.032 22.5964 126.358 22.332 125.519 22.332H122.402V27.9512H125.519ZM143.033 22.7969H144.372V26.6523H142.609C141.46 26.6523 140.636 26.9258 140.134 27.4727C139.642 28.0104 139.396 28.8991 139.396 30.1387V38H135.308V22.8789H137.919L138.644 24.7383C139.683 23.444 141.146 22.7969 143.033 22.7969ZM153.533 38.4238C151.992 38.4238 150.598 38.0775 149.349 37.3848C148.1 36.6921 147.121 35.735 146.41 34.5137C145.708 33.2923 145.357 31.9342 145.357 30.4395C145.357 28.9264 145.708 27.5638 146.41 26.3516C147.121 25.1302 148.1 24.1777 149.349 23.4941C150.598 22.8014 151.992 22.4551 153.533 22.4551C155.064 22.4551 156.454 22.8014 157.703 23.4941C158.951 24.1777 159.931 25.1302 160.642 26.3516C161.353 27.5729 161.708 28.9355 161.708 30.4395C161.708 31.9342 161.353 33.2923 160.642 34.5137C159.931 35.735 158.951 36.6921 157.703 37.3848C156.454 38.0775 155.064 38.4238 153.533 38.4238ZM150.634 33.4336C151.391 34.1992 152.357 34.582 153.533 34.582C154.708 34.582 155.675 34.1992 156.431 33.4336C157.188 32.6589 157.566 31.6608 157.566 30.4395C157.566 29.2181 157.188 28.2246 156.431 27.459C155.675 26.6842 154.708 26.2969 153.533 26.2969C152.357 26.2969 151.391 26.6842 150.634 27.459C149.878 28.2246 149.499 29.2181 149.499 30.4395C149.499 31.6608 149.878 32.6589 150.634 33.4336Z" fill="#435179"/>
<path d="M18.011 58.6611L5.36902 53.02C3.76986 52.3067 2.41154 51.1454 1.45837 49.6765C0.505205 48.2076 -0.00197208 46.494 -0.00195312 44.7429V0.000976562L12.106 4.50098C13.8402 5.14567 15.3356 6.30571 16.3912 7.8252C17.4468 9.34468 18.012 11.1508 18.011 13.001V58.6611Z" fill="url(#paint0_linear_3_340)"/>
<path d="M39.425 46.7391L27.6841 41.5001C25.8165 40.6669 24.2304 39.3104 23.1173 37.5948C22.0043 35.8793 21.4119 33.8781 21.412 31.8331V10.6671L32.5281 14.7999C34.5532 15.5518 36.2997 16.9054 37.5331 18.6788C38.7665 20.4523 39.4277 22.5609 39.428 24.7211L39.425 46.7391Z" fill="url(#paint1_linear_3_340)"/>
<defs>
<linearGradient id="paint0_linear_3_340" x1="-1.01068" y1="-11.4378" x2="38.2089" y2="3.43923" gradientUnits="userSpaceOnUse">
<stop stop-color="#FFB73E"/>
<stop offset="1" stop-color="#EC6B22"/>
</linearGradient>
<linearGradient id="paint1_linear_3_340" x1="12.2238" y1="-5.92602" x2="86.1302" y2="28.7242" gradientUnits="userSpaceOnUse">
<stop stop-color="#9175F9"/>
<stop offset="1" stop-color="#4C30B2"/>
</linearGradient>
</defs>
</svg>
