<svg width="28" height="23" viewBox="0 0 28 23" fill="none" xmlns="http://www.w3.org/2000/svg">
<path d="M21.694 22.224H4.184C3.76592 22.2241 3.35191 22.1419 2.96561 21.982C2.57932 21.8221 2.22831 21.5877 1.93263 21.2921C1.63696 20.9965 1.40241 20.6456 1.24239 20.2593C1.08236 19.8731 1 19.4591 1 19.041V1.531C1 1.39017 1.05595 1.25511 1.15553 1.15553C1.25511 1.05594 1.39017 1 1.531 1H2.592C2.73283 1 2.86789 1.05594 2.96747 1.15553C3.06706 1.25511 3.123 1.39017 3.123 1.531V19.041C3.12379 19.322 3.2359 19.5912 3.43476 19.7897C3.63362 19.9881 3.90303 20.0997 4.184 20.1H21.694C21.8348 20.1 21.9699 20.1559 22.0695 20.2555C22.1691 20.3551 22.225 20.4902 22.225 20.631V21.692C22.2251 21.7618 22.2115 21.831 22.1849 21.8955C22.1582 21.9601 22.1191 22.0187 22.0698 22.0681C22.0205 22.1175 21.9619 22.1567 21.8974 22.1835C21.8329 22.2102 21.7638 22.224 21.694 22.224Z" fill="#435179" stroke="#435179" stroke-width="0.2"/>
<path d="M6.68097 17.293L5.93197 16.544C5.88253 16.4948 5.84331 16.4363 5.81654 16.3718C5.78978 16.3074 5.776 16.2383 5.776 16.1685C5.776 16.0987 5.78978 16.0296 5.81654 15.9652C5.84331 15.9008 5.88253 15.8423 5.93197 15.793L13.608 8.11701C14.2061 7.52296 15.0149 7.18957 15.858 7.18957C16.701 7.18957 17.5098 7.52296 18.108 8.11701L18.82 8.83001C19.0218 9.02339 19.2905 9.13135 19.57 9.13135C19.8495 9.13135 20.1182 9.02339 20.32 8.83001L25.342 3.80701C25.3913 3.75769 25.4498 3.71858 25.5142 3.69189C25.5787 3.6652 25.6477 3.65146 25.7175 3.65146C25.7872 3.65146 25.8563 3.6652 25.9207 3.69189C25.9851 3.71858 26.0437 3.75769 26.093 3.80701L26.842 4.55601C26.8914 4.60525 26.9306 4.66377 26.9574 4.72821C26.9842 4.79265 26.9979 4.86174 26.9979 4.93151C26.9979 5.00129 26.9842 5.07037 26.9574 5.13481C26.9306 5.19925 26.8914 5.25777 26.842 5.30701L21.822 10.332C21.2238 10.9261 20.415 11.2595 19.572 11.2595C18.7289 11.2595 17.9201 10.9261 17.322 10.332L16.61 9.61901C16.4082 9.42563 16.1395 9.31767 15.86 9.31767C15.5805 9.31767 15.3118 9.42563 15.11 9.61901L7.43497 17.295C7.38547 17.3446 7.32664 17.384 7.26186 17.4108C7.19709 17.4376 7.12765 17.4513 7.05755 17.4511C6.98746 17.4509 6.91809 17.4368 6.85346 17.4097C6.78882 17.3826 6.7302 17.3429 6.68097 17.293Z" fill="#435179" stroke="#435179" stroke-width="0.2"/>
</svg>
