<svg width="28" height="28" viewBox="0 0 28 28" fill="none" xmlns="http://www.w3.org/2000/svg">
<path d="M17.214 5.64301H14.5C14.2239 5.64301 14 5.86686 14 6.14301V7.00001C14 7.27615 14.2239 7.50001 14.5 7.50001H17.214C17.4901 7.50001 17.714 7.27615 17.714 7.00001V6.14301C17.714 5.86686 17.4901 5.64301 17.214 5.64301Z" fill="#435179" stroke="#435179" stroke-width="0.2"/>
<path d="M20.929 9.35699H14.5C14.2239 9.35699 14 9.58085 14 9.85699V10.714C14 10.9901 14.2239 11.214 14.5 11.214H20.929C21.2051 11.214 21.429 10.9901 21.429 10.714V9.85699C21.429 9.58085 21.2051 9.35699 20.929 9.35699Z" fill="#435179" stroke="#435179" stroke-width="0.2"/>
<path d="M24.214 1H11.214C10.4754 1.00079 9.76718 1.29457 9.24488 1.81688C8.72257 2.33918 8.42879 3.04735 8.428 3.786V11.215H3.786C3.04752 11.2158 2.33951 11.5094 1.81723 12.0315C1.29495 12.5536 1.00106 13.2615 1 14V22.357C1.00132 23.588 1.49092 24.7682 2.36136 25.6386C3.23181 26.5091 4.41201 26.9987 5.643 27H18.643C19.3817 26.9992 20.0898 26.7054 20.6121 26.1831C21.1344 25.6608 21.4282 24.9527 21.429 24.214V21.428H24.215C24.9533 21.4269 25.6611 21.1332 26.1831 20.6111C26.7052 20.0891 26.9989 19.3813 27 18.643V3.786C26.9992 3.04735 26.7054 2.33918 26.1831 1.81688C25.6608 1.29457 24.9527 1.00079 24.214 1ZM25.143 18.643C25.1427 18.8893 25.0448 19.1254 24.8706 19.2996C24.6964 19.4738 24.4603 19.5717 24.214 19.572H20.5C20.378 19.5719 20.2571 19.5958 20.1443 19.6424C20.0316 19.6891 19.9291 19.7575 19.8428 19.8438C19.7565 19.9301 19.6881 20.0326 19.6414 20.1453C19.5948 20.2581 19.5709 20.379 19.571 20.501V24.215C19.571 24.337 19.547 24.4578 19.5003 24.5705C19.4536 24.6832 19.3852 24.7856 19.2989 24.8719C19.2126 24.9582 19.1102 25.0266 18.9975 25.0733C18.8848 25.12 18.764 25.144 18.642 25.144H5.642C4.90335 25.1432 4.19518 24.8494 3.67288 24.3271C3.15057 23.8048 2.85679 23.0967 2.856 22.358V14C2.85627 13.7537 2.95423 13.5175 3.12839 13.3434C3.30255 13.1692 3.53869 13.0713 3.785 13.071H8.428V20.964C8.428 21.0871 8.47688 21.2051 8.5639 21.2921C8.65092 21.3791 8.76894 21.428 8.892 21.428H9.821C9.94406 21.428 10.0621 21.3791 10.1491 21.2921C10.2361 21.2051 10.285 21.0871 10.285 20.964V3.786C10.2853 3.53969 10.3832 3.30356 10.5574 3.12939C10.7316 2.95523 10.9677 2.85726 11.214 2.85699H24.214C24.4603 2.85726 24.6964 2.95523 24.8706 3.12939C25.0448 3.30356 25.1427 3.53969 25.143 3.786V18.643Z" fill="#435179" stroke="#435179" stroke-width="0.2"/>
</svg>
